<svg width="32" height="32" viewBox="0 0 32 32" fill="none" xmlns="http://www.w3.org/2000/svg">
  <rect width="32" height="32" rx="6" fill="#0f172a"/>
  
  <circle cx="16" cy="16" r="14" stroke="#38bdf8" stroke-width="1.5" stroke-opacity="0.3"/>
  
  <path d="M16 8V11M16 21V24M24 16H21M11 16H8M21.65 10.35L19.5 12.5M12.5 19.5L10.35 21.65M21.65 21.65L19.5 19.5M12.5 12.5L10.35 10.35" stroke="#38bdf8" stroke-width="1.5" stroke-linecap="round"/>
  
  <circle cx="16" cy="14" r="1" fill="#ffffff"/>
  <rect x="15" y="17" width="2" height="5" rx="0.5" fill="#ffffff"/>
  
  <rect x="22" y="22" width="4" height="1" fill="#FF0000"/>
  <rect x="22" y="24" width="4" height="1" fill="#FFFFFF"/>
  <rect x="22" y="26" width="4" height="1" fill="#FF0000"/>
</svg><svg width="32" height="32" viewBox="0 0 32 32" fill="none" xmlns="http://www.w3.org/2000/svg">
  <rect width="32" height="32" rx="6" fill="#0f172a"/>
  
  <circle cx="16" cy="16" r="14" stroke="#38bdf8" stroke-width="1.5" stroke-opacity="0.3"/>
  
  <path d="M16 8V11M16 21V24M24 16H21M11 16H8M21.65 10.35L19.5 12.5M12.5 19.5L10.35 21.65M21.65 21.65L19.5 19.5M12.5 12.5L10.35 10.35" stroke="#38bdf8" stroke-width="1.5" stroke-linecap="round"/>
  
  <circle cx="16" cy="14" r="1" fill="#ffffff"/>
  <rect x="15" y="17" width="2" height="5" rx="0.5" fill="#ffffff"/>
  
  <rect x="22" y="22" width="4" height="1" fill="#FF0000"/>
  <rect x="22" y="24" width="4" height="1" fill="#FFFFFF"/>
  <rect x="22" y="26" width="4" height="1" fill="#FF0000"/>
</svg>